<?xml version="1.0" standalone="no"?>
<!DOCTYPE svg PUBLIC "-//W3C//DTD SVG 20010904//EN"
 "http://www.w3.org/TR/2001/REC-SVG-20010904/DTD/svg10.dtd">
<svg version="1.0" xmlns="http://www.w3.org/2000/svg"
 width="700.000000pt" height="700.000000pt" viewBox="0 0 700.000000 700.000000"
 preserveAspectRatio="xMidYMid meet">
<metadata>
Created by potrace 1.14, written by Peter Selinger 2001-2017
</metadata>
<g transform="translate(0.000000,700.000000) scale(0.100000,-0.100000)"
fill="#000000" stroke="none">
<path d="M3280 6994 c-19 -2 -84 -9 -145 -14 -647 -63 -1298 -330 -1820 -746
-147 -117 -459 -431 -569 -574 -410 -529 -654 -1132 -728 -1795 -17 -155 -17
-575 0 -730 17 -150 54 -355 92 -505 223 -882 801 -1655 1594 -2133 428 -258
902 -416 1431 -479 145 -17 576 -17 730 0 822 91 1556 447 2131 1034 203 206
348 390 487 618 274 449 433 916 499 1465 16 136 16 592 0 730 -86 725 -352
1347 -803 1885 -122 145 -351 370 -494 484 -510 407 -1117 661 -1775 742 -117
15 -553 27 -630 18z m-1740 -3394 l0 -840 415 0 415 0 0 -100 0 -100 -522 2
-523 3 -3 925 c-1 509 0 931 3 938 3 8 35 12 110 12 l105 0 0 -840z m1370 440
l0 -400 495 0 495 0 0 400 0 400 105 0 105 0 0 -940 0 -940 -105 0 -105 0 0
440 0 440 -495 0 -495 0 0 -440 0 -440 -110 0 -110 0 0 940 0 940 110 0 110 0
0 -400z m2765 300 l0 -95 -412 -3 -413 -2 0 -340 0 -340 388 -2 387 -3 0 -95
0 -95 -387 -3 -388 -2 0 -400 0 -400 -110 0 -110 0 0 940 0 940 523 -2 522 -3
0 -95z"/>
</g>
</svg>
